<svg xmlns="http://www.w3.org/2000/svg" viewBox="0 0 900 800">
<g fill="none" stroke="#8aa4d6" stroke-opacity="0.13" stroke-width="1.6" stroke-linecap="round" stroke-linejoin="round">

  <!-- ── LAPTOP 1 (top-left) ── -->
  <g transform="translate(38,42) rotate(-12,40,26)">
    <rect x="0" y="0" width="80" height="44" rx="3"/>
    <rect x="6" y="5" width="68" height="34" rx="1"/>
    <path d="M-4,44 L84,44 L78,52 L2,52 Z"/>
    <line x1="12" y1="47" x2="68" y2="47"/>
    <circle cx="40" cy="2.5" r="1.5"/>
  </g>

  <!-- ── BOOK 1 (top-center) ── -->
  <g transform="translate(320,18) rotate(6,22,29)">
    <rect x="0" y="0" width="44" height="58" rx="2"/>
    <line x1="6" y1="0" x2="6" y2="58"/>
    <line x1="10" y1="16" x2="38" y2="16"/>
    <line x1="10" y1="23" x2="38" y2="23"/>
    <line x1="10" y1="30" x2="38" y2="30"/>
    <line x1="10" y1="37" x2="30" y2="37"/>
    <line x1="10" y1="44" x2="35" y2="44"/>
  </g>

  <!-- ── PEN 1 (top, angled) ── -->
  <g transform="translate(548,10) rotate(68,7,36)">
    <rect x="2" y="6" width="10" height="46"/>
    <polygon points="2,52 12,52 7,64"/>
    <rect x="2" y="0" width="10" height="8"/>
    <line x1="2" y1="8" x2="12" y2="8"/>
  </g>

  <!-- ── PHONE 1 (top-right) ── -->
  <g transform="translate(700,40) rotate(14,18,32)">
    <rect x="0" y="0" width="36" height="64" rx="6"/>
    <circle cx="18" cy="6" r="2"/>
    <line x1="13" y1="59" x2="23" y2="59"/>
    <rect x="4" y="13" width="28" height="38" rx="2"/>
    <line x1="6" y1="15" x2="30" y2="49"/>
    <line x1="30" y1="15" x2="6" y2="49"/>
  </g>

  <!-- ── SPECTACLES 1 (top-right area) ── -->
  <g transform="translate(830,80) rotate(-8,38,15)">
    <circle cx="16" cy="15" r="13"/>
    <circle cx="60" cy="15" r="13"/>
    <line x1="29" y1="15" x2="47" y2="15"/>
    <line x1="3" y1="11" x2="-10" y2="9"/>
    <line x1="73" y1="11" x2="86" y2="9"/>
  </g>

  <!-- ── FILE 1 (mid-left) ── -->
  <g transform="translate(22,190) rotate(-9,20,26)">
    <path d="M0,0 L26,0 L40,14 L40,52 L0,52 Z"/>
    <path d="M26,0 L26,14 L40,14"/>
    <line x1="6" y1="22" x2="34" y2="22"/>
    <line x1="6" y1="29" x2="34" y2="29"/>
    <line x1="6" y1="36" x2="34" y2="36"/>
    <line x1="6" y1="43" x2="22" y2="43"/>
  </g>

  <!-- ── SPECTACLES 2 (mid-left) ── -->
  <g transform="translate(180,165) rotate(-4,38,15)">
    <circle cx="16" cy="15" r="13"/>
    <circle cx="60" cy="15" r="13"/>
    <line x1="29" y1="15" x2="47" y2="15"/>
    <line x1="3" y1="11" x2="-10" y2="9"/>
    <line x1="73" y1="11" x2="86" y2="9"/>
  </g>

  <!-- ── BOOK 2 (mid-center) ── -->
  <g transform="translate(440,170) rotate(8,22,29)">
    <rect x="0" y="0" width="44" height="58" rx="2"/>
    <line x1="6" y1="0" x2="6" y2="58"/>
    <line x1="10" y1="16" x2="38" y2="16"/>
    <line x1="10" y1="23" x2="38" y2="23"/>
    <line x1="10" y1="30" x2="38" y2="30"/>
    <line x1="10" y1="37" x2="30" y2="37"/>
  </g>

  <!-- ── LAPTOP 2 (mid-right) ── -->
  <g transform="translate(650,165) rotate(11,40,26)">
    <rect x="0" y="0" width="80" height="44" rx="3"/>
    <rect x="6" y="5" width="68" height="34" rx="1"/>
    <path d="M-4,44 L84,44 L78,52 L2,52 Z"/>
    <line x1="12" y1="47" x2="68" y2="47"/>
    <circle cx="40" cy="2.5" r="1.5"/>
  </g>

  <!-- ── FILE 2 (far right mid) ── -->
  <g transform="translate(840,195) rotate(6,20,26)">
    <path d="M0,0 L26,0 L40,14 L40,52 L0,52 Z"/>
    <path d="M26,0 L26,14 L40,14"/>
    <line x1="6" y1="22" x2="34" y2="22"/>
    <line x1="6" y1="29" x2="34" y2="29"/>
    <line x1="6" y1="36" x2="34" y2="36"/>
  </g>

  <!-- ── PHONE 2 (center-left) ── -->
  <g transform="translate(75,330) rotate(-19,18,32)">
    <rect x="0" y="0" width="36" height="64" rx="6"/>
    <circle cx="18" cy="6" r="2"/>
    <line x1="13" y1="59" x2="23" y2="59"/>
    <rect x="4" y="13" width="28" height="38" rx="2"/>
    <line x1="6" y1="15" x2="30" y2="49"/>
    <line x1="30" y1="15" x2="6" y2="49"/>
  </g>

  <!-- ── PEN 2 (center) ── -->
  <g transform="translate(278,300) rotate(-38,7,36)">
    <rect x="2" y="6" width="10" height="46"/>
    <polygon points="2,52 12,52 7,64"/>
    <rect x="2" y="0" width="10" height="8"/>
    <line x1="2" y1="8" x2="12" y2="8"/>
  </g>

  <!-- ── SPECTACLES 3 (center) ── -->
  <g transform="translate(460,330) rotate(13,38,15)">
    <circle cx="16" cy="15" r="13"/>
    <circle cx="60" cy="15" r="13"/>
    <line x1="29" y1="15" x2="47" y2="15"/>
    <line x1="3" y1="11" x2="-10" y2="9"/>
    <line x1="73" y1="11" x2="86" y2="9"/>
  </g>

  <!-- ── BOOK 3 (center-right) ── -->
  <g transform="translate(695,310) rotate(-7,22,29)">
    <rect x="0" y="0" width="44" height="58" rx="2"/>
    <line x1="6" y1="0" x2="6" y2="58"/>
    <line x1="10" y1="16" x2="38" y2="16"/>
    <line x1="10" y1="23" x2="38" y2="23"/>
    <line x1="10" y1="30" x2="38" y2="30"/>
    <line x1="10" y1="37" x2="30" y2="37"/>
    <line x1="10" y1="44" x2="35" y2="44"/>
  </g>

  <!-- ── BOOK 4 (lower-left) ── -->
  <g transform="translate(52,455) rotate(5,22,29)">
    <rect x="0" y="0" width="44" height="58" rx="2"/>
    <line x1="6" y1="0" x2="6" y2="58"/>
    <line x1="10" y1="16" x2="38" y2="16"/>
    <line x1="10" y1="23" x2="38" y2="23"/>
    <line x1="10" y1="30" x2="38" y2="30"/>
    <line x1="10" y1="37" x2="28" y2="37"/>
  </g>

  <!-- ── LAPTOP 3 (lower-center-left) ── -->
  <g transform="translate(285,448) rotate(-8,40,26)">
    <rect x="0" y="0" width="80" height="44" rx="3"/>
    <rect x="6" y="5" width="68" height="34" rx="1"/>
    <path d="M-4,44 L84,44 L78,52 L2,52 Z"/>
    <line x1="12" y1="47" x2="68" y2="47"/>
    <circle cx="40" cy="2.5" r="1.5"/>
  </g>

  <!-- ── FILE 3 (lower-center-right) ── -->
  <g transform="translate(540,468) rotate(17,20,26)">
    <path d="M0,0 L26,0 L40,14 L40,52 L0,52 Z"/>
    <path d="M26,0 L26,14 L40,14"/>
    <line x1="6" y1="22" x2="34" y2="22"/>
    <line x1="6" y1="29" x2="34" y2="29"/>
    <line x1="6" y1="36" x2="34" y2="36"/>
    <line x1="6" y1="43" x2="22" y2="43"/>
  </g>

  <!-- ── SPECTACLES 4 (lower-right) ── -->
  <g transform="translate(775,445) rotate(-6,38,15)">
    <circle cx="16" cy="15" r="13"/>
    <circle cx="60" cy="15" r="13"/>
    <line x1="29" y1="15" x2="47" y2="15"/>
    <line x1="3" y1="11" x2="-10" y2="9"/>
    <line x1="73" y1="11" x2="86" y2="9"/>
  </g>

  <!-- ── PEN 3 (bottom-left) ── -->
  <g transform="translate(148,585) rotate(33,7,36)">
    <rect x="2" y="6" width="10" height="46"/>
    <polygon points="2,52 12,52 7,64"/>
    <rect x="2" y="0" width="10" height="8"/>
    <line x1="2" y1="8" x2="12" y2="8"/>
  </g>

  <!-- ── PHONE 3 (bottom-center) ── -->
  <g transform="translate(375,570) rotate(-11,18,32)">
    <rect x="0" y="0" width="36" height="64" rx="6"/>
    <circle cx="18" cy="6" r="2"/>
    <line x1="13" y1="59" x2="23" y2="59"/>
    <rect x="4" y="13" width="28" height="38" rx="2"/>
    <line x1="6" y1="15" x2="30" y2="49"/>
    <line x1="30" y1="15" x2="6" y2="49"/>
  </g>

  <!-- ── LAPTOP 4 (bottom-right) ── -->
  <g transform="translate(610,580) rotate(6,40,26)">
    <rect x="0" y="0" width="80" height="44" rx="3"/>
    <rect x="6" y="5" width="68" height="34" rx="1"/>
    <path d="M-4,44 L84,44 L78,52 L2,52 Z"/>
    <line x1="12" y1="47" x2="68" y2="47"/>
    <circle cx="40" cy="2.5" r="1.5"/>
  </g>

  <!-- ── BOOK 5 (bottom far-right) ── -->
  <g transform="translate(840,575) rotate(-11,22,29)">
    <rect x="0" y="0" width="44" height="58" rx="2"/>
    <line x1="6" y1="0" x2="6" y2="58"/>
    <line x1="10" y1="16" x2="38" y2="16"/>
    <line x1="10" y1="23" x2="38" y2="23"/>
    <line x1="10" y1="30" x2="38" y2="30"/>
  </g>

  <!-- ── PEN 4 (bottom far-right) ── -->
  <g transform="translate(800,510) rotate(52,7,36)">
    <rect x="2" y="6" width="10" height="46"/>
    <polygon points="2,52 12,52 7,64"/>
    <rect x="2" y="0" width="10" height="8"/>
    <line x1="2" y1="8" x2="12" y2="8"/>
  </g>

  <!-- ── FILE 4 (bottom far-left) ── -->
  <g transform="translate(200,660) rotate(-14,20,26)">
    <path d="M0,0 L26,0 L40,14 L40,52 L0,52 Z"/>
    <path d="M26,0 L26,14 L40,14"/>
    <line x1="6" y1="22" x2="34" y2="22"/>
    <line x1="6" y1="29" x2="34" y2="29"/>
    <line x1="6" y1="36" x2="26" y2="36"/>
  </g>

  <!-- ── SPECTACLES 5 (bottom-center) ── -->
  <g transform="translate(490,668) rotate(-9,38,15)">
    <circle cx="16" cy="15" r="13"/>
    <circle cx="60" cy="15" r="13"/>
    <line x1="29" y1="15" x2="47" y2="15"/>
    <line x1="3" y1="11" x2="-10" y2="9"/>
    <line x1="73" y1="11" x2="86" y2="9"/>
  </g>

</g>
</svg>
